<svg
    id="svg8"
    width="347"
    height="85.86"
    viewBox="0 0 97 24"
    xmlns="http://www.w3.org/2000/svg">
    <path
        d="M3.152 19H0.92V6.52H3.152V19ZM2.024 4.264C1.624 4.264 1.28 4.136 0.992 3.88C0.72 3.608 0.584 3.248 0.584 2.8C0.584 2.352 0.72 2 0.992 1.744C1.28 1.472 1.624 1.336 2.024 1.336C2.424 1.336 2.76 1.472 3.032 1.744C3.32 2 3.464 2.352 3.464 2.8C3.464 3.248 3.32 3.608 3.032 3.88C2.76 4.136 2.424 4.264 2.024 4.264ZM14.2863 19.36C13.1183 19.36 12.0543 19.168 11.0943 18.784C10.1343 18.4 9.31031 17.84 8.62231 17.104C7.93431 16.368 7.39831 15.464 7.01431 14.392C6.64631 13.304 6.46231 12.064 6.46231 10.672C6.46231 9.28 6.67031 8.048 7.08631 6.976C7.51831 5.888 8.09431 4.976 8.81431 4.24C9.53431 3.504 10.3743 2.944 11.3343 2.56C12.2943 2.176 13.3183 1.984 14.4063 1.984C15.0943 1.984 15.7103 2.032 16.2543 2.128C16.8143 2.224 17.2943 2.336 17.6943 2.464C18.1103 2.592 18.4463 2.72 18.7023 2.848C18.9583 2.976 19.1343 3.072 19.2303 3.136L18.5583 5.056C18.4143 4.96 18.2063 4.856 17.9343 4.744C17.6623 4.632 17.3503 4.52 16.9983 4.408C16.6623 4.296 16.2863 4.208 15.8703 4.144C15.4703 4.064 15.0623 4.024 14.6463 4.024C13.7663 4.024 12.9743 4.176 12.2703 4.48C11.5663 4.784 10.9663 5.224 10.4703 5.8C9.97431 6.376 9.59031 7.08 9.31831 7.912C9.06231 8.728 8.93431 9.648 8.93431 10.672C8.93431 11.664 9.04631 12.568 9.27031 13.384C9.51031 14.2 9.86231 14.904 10.3263 15.496C10.7903 16.072 11.3663 16.52 12.0543 16.84C12.7583 17.16 13.5743 17.32 14.5023 17.32C15.5743 17.32 16.4623 17.208 17.1663 16.984C17.8703 16.76 18.3983 16.56 18.7503 16.384L19.3503 18.304C19.2383 18.384 19.0383 18.488 18.7503 18.616C18.4623 18.728 18.1023 18.84 17.6703 18.952C17.2383 19.064 16.7343 19.16 16.1583 19.24C15.5823 19.32 14.9583 19.36 14.2863 19.36ZM26.0971 17.392C26.6251 17.392 27.0891 17.384 27.4891 17.368C27.9051 17.336 28.2491 17.288 28.5211 17.224V13.504C28.3611 13.424 28.0971 13.36 27.7291 13.312C27.3771 13.248 26.9451 13.216 26.4331 13.216C26.0971 13.216 25.7371 13.24 25.3531 13.288C24.9851 13.336 24.6411 13.44 24.3211 13.6C24.0171 13.744 23.7611 13.952 23.5531 14.224C23.3451 14.48 23.2411 14.824 23.2411 15.256C23.2411 16.056 23.4971 16.616 24.0091 16.936C24.5211 17.24 25.2171 17.392 26.0971 17.392ZM25.9051 6.208C26.8011 6.208 27.5531 6.328 28.1611 6.568C28.7851 6.792 29.2811 7.12 29.6491 7.552C30.0331 7.968 30.3051 8.472 30.4651 9.064C30.6251 9.64 30.7051 10.28 30.7051 10.984V18.784C30.5131 18.816 30.2411 18.864 29.8891 18.928C29.5531 18.976 29.1691 19.024 28.7371 19.072C28.3051 19.12 27.8331 19.16 27.3211 19.192C26.8251 19.24 26.3291 19.264 25.8331 19.264C25.1291 19.264 24.4811 19.192 23.8891 19.048C23.2971 18.904 22.7851 18.68 22.3531 18.376C21.9211 18.056 21.5851 17.64 21.3451 17.128C21.1051 16.616 20.9851 16 20.9851 15.28C20.9851 14.592 21.1211 14 21.3931 13.504C21.6811 13.008 22.0651 12.608 22.5451 12.304C23.0251 12 23.5851 11.776 24.2251 11.632C24.8651 11.488 25.5371 11.416 26.2411 11.416C26.4651 11.416 26.6971 11.432 26.9371 11.464C27.1771 11.48 27.4011 11.512 27.6091 11.56C27.8331 11.592 28.0251 11.624 28.1851 11.656C28.3451 11.688 28.4571 11.712 28.5211 11.728V11.104C28.5211 10.736 28.4811 10.376 28.4011 10.024C28.3211 9.656 28.1771 9.336 27.9691 9.064C27.7611 8.776 27.4731 8.552 27.1051 8.392C26.7531 8.216 26.2891 8.128 25.7131 8.128C24.9771 8.128 24.3291 8.184 23.7691 8.296C23.2251 8.392 22.8171 8.496 22.5451 8.608L22.2811 6.76C22.5691 6.632 23.0491 6.512 23.7211 6.4C24.3931 6.272 25.1211 6.208 25.9051 6.208ZM38.1562 19.24C36.7802 19.208 35.8042 18.912 35.2282 18.352C34.6522 17.792 34.3642 16.92 34.3642 15.736V0.759999L36.5962 0.375999V15.376C36.5962 15.744 36.6282 16.048 36.6922 16.288C36.7562 16.528 36.8602 16.72 37.0042 16.864C37.1482 17.008 37.3402 17.12 37.5802 17.2C37.8202 17.264 38.1162 17.32 38.4682 17.368L38.1562 19.24ZM51.0894 2.2C53.4254 2.2 55.2174 2.648 56.4654 3.544C57.7294 4.424 58.3614 5.744 58.3614 7.504C58.3614 8.464 58.1854 9.288 57.8334 9.976C57.4974 10.648 57.0014 11.2 56.3454 11.632C55.7054 12.048 54.9214 12.352 53.9934 12.544C53.0654 12.736 52.0174 12.832 50.8494 12.832H49.0014V19H46.6734V2.608C47.3294 2.448 48.0574 2.344 48.8574 2.296C49.6734 2.232 50.4174 2.2 51.0894 2.2ZM51.2814 4.24C50.2894 4.24 49.5294 4.264 49.0014 4.312V10.84H50.7534C51.5534 10.84 52.2734 10.792 52.9134 10.696C53.5534 10.584 54.0894 10.408 54.5214 10.168C54.9694 9.912 55.3134 9.568 55.5534 9.136C55.7934 8.704 55.9134 8.152 55.9134 7.48C55.9134 6.84 55.7854 6.312 55.5294 5.896C55.2894 5.48 54.9534 5.152 54.5214 4.912C54.1054 4.656 53.6174 4.48 53.0574 4.384C52.4974 4.288 51.9054 4.24 51.2814 4.24ZM71.6313 12.76C71.6313 13.752 71.4873 14.648 71.1993 15.448C70.9113 16.248 70.5033 16.936 69.9753 17.512C69.4633 18.088 68.8473 18.536 68.1273 18.856C67.4073 19.16 66.6233 19.312 65.7753 19.312C64.9273 19.312 64.1433 19.16 63.4233 18.856C62.7033 18.536 62.0793 18.088 61.5513 17.512C61.0393 16.936 60.6393 16.248 60.3513 15.448C60.0633 14.648 59.9193 13.752 59.9193 12.76C59.9193 11.784 60.0633 10.896 60.3513 10.096C60.6393 9.28 61.0393 8.584 61.5513 8.008C62.0793 7.432 62.7033 6.992 63.4233 6.688C64.1433 6.368 64.9273 6.208 65.7753 6.208C66.6233 6.208 67.4073 6.368 68.1273 6.688C68.8473 6.992 69.4633 7.432 69.9753 8.008C70.5033 8.584 70.9113 9.28 71.1993 10.096C71.4873 10.896 71.6313 11.784 71.6313 12.76ZM69.3033 12.76C69.3033 11.352 68.9833 10.24 68.3433 9.424C67.7193 8.592 66.8633 8.176 65.7753 8.176C64.6873 8.176 63.8233 8.592 63.1833 9.424C62.5593 10.24 62.2473 11.352 62.2473 12.76C62.2473 14.168 62.5593 15.288 63.1833 16.12C63.8233 16.936 64.6873 17.344 65.7753 17.344C66.8633 17.344 67.7193 16.936 68.3433 16.12C68.9833 15.288 69.3033 14.168 69.3033 12.76ZM81.8371 19C81.6611 18.648 81.4451 18.256 81.1891 17.824C80.9331 17.392 80.6531 16.952 80.3491 16.504C80.0451 16.04 79.7331 15.584 79.4131 15.136C79.0931 14.688 78.7811 14.264 78.4771 13.864C78.1731 14.264 77.8611 14.696 77.5411 15.16C77.2211 15.608 76.9091 16.064 76.6051 16.528C76.3171 16.976 76.0451 17.416 75.7891 17.848C75.5331 18.28 75.3171 18.664 75.1411 19H72.8371C73.3971 17.912 74.0611 16.808 74.8291 15.688C75.6131 14.552 76.3891 13.472 77.1571 12.448L73.0291 6.52H75.5491L78.5251 10.888L81.5251 6.52H83.9011L79.8691 12.304C80.6371 13.344 81.4211 14.448 82.2211 15.616C83.0371 16.768 83.7251 17.896 84.2851 19H81.8371ZM85.1669 21.328C85.3429 21.408 85.5669 21.48 85.8389 21.544C86.1269 21.624 86.4069 21.664 86.6789 21.664C87.5589 21.664 88.2469 21.464 88.7429 21.064C89.2389 20.68 89.6869 20.048 90.0869 19.168C89.0789 17.248 88.1349 15.216 87.2549 13.072C86.3909 10.912 85.6709 8.728 85.0949 6.52H87.4949C87.6709 7.24 87.8789 8.016 88.1189 8.848C88.3749 9.68 88.6549 10.536 88.9589 11.416C89.2629 12.296 89.5909 13.176 89.9429 14.056C90.2949 14.936 90.6629 15.784 91.0469 16.6C91.6549 14.92 92.1829 13.256 92.6309 11.608C93.0789 9.96 93.5029 8.264 93.9029 6.52H96.2069C95.6309 8.872 94.9909 11.136 94.2869 13.312C93.5829 15.472 92.8229 17.496 92.0069 19.384C91.6869 20.104 91.3509 20.72 90.9989 21.232C90.6629 21.76 90.2869 22.192 89.8709 22.528C89.4549 22.864 88.9829 23.112 88.4549 23.272C87.9429 23.432 87.3589 23.512 86.7029 23.512C86.5269 23.512 86.3429 23.496 86.1509 23.464C85.9589 23.448 85.7669 23.416 85.5749 23.368C85.3989 23.336 85.2309 23.296 85.0709 23.248C84.9269 23.2 84.8229 23.16 84.7589 23.128L85.1669 21.328Z"
        fill="#0014A0"
        aria-label="iCal Poxy"
    />
</svg>
